<svg xmlns="http://www.w3.org/2000/svg" viewBox="0 0 512 512" style="enable-background:new 0 0 512 512" xml:space="preserve"><path d="M493.2 193.5 331.4 31.6C289.7-10 222.2-10 180.5 31.6L18.8 193.5C6.7 205.4 0 221.7 0 238.7v209.4c0 35.3 28.7 64 64 64h384c35.3 0 64-28.7 64-64V238.7c0-17-6.7-33.3-18.8-45.2zM320 469.5H192v-83.9c0-35.3 28.7-64 64-64s64 28.7 64 64v83.9zm149.3-21.4c0 11.8-9.6 21.3-21.3 21.3h-85.3v-83.9c0-58.9-47.8-106.7-106.7-106.7s-106.7 47.8-106.7 106.7v83.9H64c-11.8 0-21.3-9.6-21.3-21.3V238.7c0-5.7 2.3-11.1 6.3-15.1L210.7 61.9c25-24.9 65.5-24.9 90.5 0L463 223.7c4 4 6.2 9.4 6.3 15v209.4z" style="fill:#666"/></svg>